<svg xmlns="http://www.w3.org/2000/svg" width="28.874" height="31.874" viewBox="0 0 28.874 31.874">
  <g id="suma" transform="translate(0.126 0.406)">
    <g id="Trazado_5" data-name="Trazado 5" transform="translate(-0.126 2.594)" fill="none">
      <path d="M14.437,0A14.437,14.437,0,1,1,0,14.437,14.437,14.437,0,0,1,14.437,0Z" stroke="none"/>
      <path d="M 14.43710327148438 3.000003814697266 C 11.38214302062988 3.000003814697266 8.510032653808594 4.189672470092773 6.349853515625 6.349853515625 C 4.189672470092773 8.510032653808594 3.000003814697266 11.38214302062988 3.000003814697266 14.43710327148438 C 3.000003814697266 17.49206352233887 4.189672470092773 20.36417388916016 6.349853515625 22.52435302734375 C 8.510032653808594 24.68453216552734 11.38214302062988 25.87420272827148 14.43710327148438 25.87420272827148 C 17.49206352233887 25.87420272827148 20.36417388916016 24.68453216552734 22.52435302734375 22.52435302734375 C 24.68453216552734 20.36417388916016 25.87420272827148 17.49206352233887 25.87420272827148 14.43710327148438 C 25.87420272827148 11.38214302062988 24.68453216552734 8.510032653808594 22.52435302734375 6.349853515625 C 20.36417388916016 4.189672470092773 17.49206352233887 3.000003814697266 14.43710327148438 3.000003814697266 M 14.43710327148438 3.814697265625e-06 C 22.41049385070801 3.814697265625e-06 28.87420272827148 6.463712692260742 28.87420272827148 14.43710327148438 C 28.87420272827148 22.41049385070801 22.41049385070801 28.87420272827148 14.43710327148438 28.87420272827148 C 6.463712692260742 28.87420272827148 3.814697265625e-06 22.41049385070801 3.814697265625e-06 14.43710327148438 C 3.814697265625e-06 6.463712692260742 6.463712692260742 3.814697265625e-06 14.43710327148438 3.814697265625e-06 Z" stroke="none" fill="#000"/>
    </g>
    <text id="_" data-name="+" transform="translate(6.874 23.594)" font-size="22" font-family="SegoeUI-Semibold, Segoe UI" font-weight="600"><tspan x="0" y="0">+</tspan></text>
  </g>
</svg>
